<svg xmlns="http://www.w3.org/2000/svg" xmlns:xlink="http://www.w3.org/1999/xlink" width="119" height="128" viewBox="0 0 119 128"><defs><path id="a" d="M.125.11H91.56v83.972H.125z"/></defs><g fill="none" fill-rule="evenodd"><path fill="#545454" d="M26.125 119.672a8.218 8.218 0 0 0 8.218 8.218h17.151a8.218 8.218 0 0 0 8.218-8.218v-17.906H26.125v17.906z"/><g transform="translate(26 .89)"><mask id="b" fill="#fff"><use xlink:href="#a"/></mask><path fill="#545454" d="M72.899.11H18.785C8.479.11.125 8.464.125 18.77v4.666H48.64c10.306 0 18.66 8.354 18.66 18.66v40.119c0 .63-.033 1.252-.093 1.867h5.69c10.308 0 18.662-8.355 18.662-18.66V18.77C91.56 8.464 83.206.11 72.899.11" mask="url(#b)"/></g><path fill="#ACACAC" d="M26.125 61.467V24.326H18.66C8.354 24.326 0 32.68 0 42.986v40.12c0 10.305 8.354 18.66 18.66 18.66h7.465V61.467zM59.712 101.766h14.93c9.674 0 17.63-7.365 18.565-16.794H59.712v16.794z"/><path fill="#0045E3" d="M93.301 42.986c0-10.307-8.354-18.66-18.66-18.66H26.124v77.439h33.588V84.971h33.495c.061-.614.094-1.236.094-1.866V42.986z"/><path fill="#8D8D8D" d="M93.301 42.986c0-10.307-8.354-18.66-18.66-18.66H26.124v77.439h33.588V84.971h33.495c.061-.614.094-1.236.094-1.866V42.986z"/></g></svg>