<svg xmlns="http://www.w3.org/2000/svg" xmlns:xlink="http://www.w3.org/1999/xlink" width="36" height="36" viewBox="0 0 36 36"><g fill="none" fill-rule="evenodd"><path fill="#0045E3" d="M7.398 33.64a2.328 2.328 0 0 0 2.327 2.329h4.857a2.328 2.328 0 0 0 2.327-2.33v-5.076H7.398v5.076zM28.005 0H12.681a5.287 5.287 0 0 0-5.283 5.29v1.322h13.738a5.287 5.287 0 0 1 5.284 5.29v11.372c0 .178-.01.355-.027.529h1.612a5.287 5.287 0 0 0 5.284-5.29V5.29A5.287 5.287 0 0 0 28.005 0"/><path fill="#FF793F" d="M7.398 17.14V6.612H5.284A5.287 5.287 0 0 0 0 11.902v11.372a5.287 5.287 0 0 0 5.284 5.29h2.114V17.14zM16.909 28.564h4.227a5.286 5.286 0 0 0 5.257-4.761H16.91v4.76z"/><path fill="#0045E3" d="M26.42 11.902a5.287 5.287 0 0 0-5.284-5.29H7.398v21.951h9.51v-4.76h9.485c.018-.174.027-.35.027-.529V11.902z"/><path fill="#1A92FF" d="M26.42 11.902a5.287 5.287 0 0 0-5.284-5.29H7.398v21.951h9.51v-4.76h9.485c.018-.174.027-.35.027-.529V11.902z"/></g></svg>